<svg xmlns="http://www.w3.org/2000/svg" xmlns:xlink="http://www.w3.org/1999/xlink" width="375" height="150" viewBox="0 0 375 150">
  <defs>
    <style>
      .cls-1 {
        fill: #fff;
        stroke: #707070;
      }

      .cls-2 {
        fill: #a8d154;
      }

      .cls-3 {
        clip-path: url(#clip-path);
      }

      .cls-4 {
        opacity: 0.048;
      }

      .cls-5 {
        clip-path: url(#clip-path-2);
      }

      .cls-6 {
        opacity: 0.149;
        mix-blend-mode: multiply;
        isolation: isolate;
        fill: url(#linear-gradient);
      }
    </style>
    <clipPath id="clip-path">
      <rect id="Rectangle_21" data-name="Rectangle 21" class="cls-1" width="375" height="150"/>
    </clipPath>
    <clipPath id="clip-path-2">
      <path id="Path_1" data-name="Path 1" class="cls-2" d="M246.475,0C382.6,0,492.95,45.06,492.95,100.644S382.6,201.288,246.475,201.288,0,156.228,0,100.644,110.351,0,246.475,0Z" transform="translate(-52 -63)"/>
    </clipPath>
    <linearGradient id="linear-gradient" x1="0.5" x2="0.5" y2="1" gradientUnits="objectBoundingBox">
      <stop offset="0" stop-opacity="0"/>
      <stop offset="1"/>
    </linearGradient>
  </defs>
  <g id="Mask_Group_5" data-name="Mask Group 5" class="cls-3">
    <g id="Group_2" data-name="Group 2">
      <path id="Path_3" data-name="Path 3" class="cls-4" d="M246.475,0C382.6,0,492.95,45.06,492.95,100.644S382.6,201.288,246.475,201.288,0,156.228,0,100.644,110.351,0,246.475,0Z" transform="matrix(0.998, -0.07, 0.07, 0.998, -86.539, -40.391)"/>
      <g id="Mask_Group_1" data-name="Mask Group 1" class="cls-5" transform="matrix(0.998, -0.07, 0.07, 0.998, -9.271, -1.172)">
        <rect id="Rectangle_9" data-name="Rectangle 9" class="cls-2" width="385.117" height="136.588" transform="translate(1.403 1.7)"/>
        <rect id="Rectangle_19" data-name="Rectangle 19" class="cls-6" width="385.117" height="136.588" transform="translate(1.403 1.7)"/>
      </g>
    </g>
  </g>
</svg>
